<svg width="10" height="10" viewBox="0 0 27 24" fill="" xmlns="http://www.w3.org/2000/svg">
<path d="M25.3333 12.2933C25.3333 4.97333 19.6533 0 13.3333 0C7.08 0 1.33333 4.86667 1.33333 12.3733C0.533333 12.8267 0 13.68 0 14.6667V17.3333C0 18.8 1.2 20 2.66667 20H4V11.8667C4 6.70667 8.17333 2.53333 13.3333 2.53333C18.4933 2.53333 22.6667 6.70667 22.6667 11.8667V21.3333H12V24H22.6667C24.1333 24 25.3333 22.8 25.3333 21.3333V19.7067C26.12 19.2933 26.6667 18.48 26.6667 17.52V14.4533C26.6667 13.52 26.12 12.7067 25.3333 12.2933Z" fill=""/>
<path d="M9.33333 14.6667C10.0697 14.6667 10.6667 14.0697 10.6667 13.3333C10.6667 12.597 10.0697 12 9.33333 12C8.59695 12 8 12.597 8 13.3333C8 14.0697 8.59695 14.6667 9.33333 14.6667Z" fill=""/>
<path d="M17.3333 14.6667C18.0697 14.6667 18.6667 14.0697 18.6667 13.3333C18.6667 12.597 18.0697 12 17.3333 12C16.597 12 16 12.597 16 13.3333C16 14.0697 16.597 14.6667 17.3333 14.6667Z" fill=""/>
<path d="M21.3334 10.7067C21.0154 8.83218 20.0446 7.13062 18.5926 5.90317C17.1407 4.67573 15.3013 4.00156 13.4 4C9.36004 4 5.01337 7.34667 5.36004 12.6C7.00422 11.9272 8.45637 10.858 9.58701 9.48771C10.7177 8.11744 11.4917 6.48869 11.84 4.74667C13.5867 8.25333 17.1734 10.6667 21.3334 10.7067Z" fill=""/>
</svg>
