<svg width="24" height="25" viewBox="0 0 24 25" fill="none" xmlns="http://www.w3.org/2000/svg">
<path d="M20.4854 4.12291C18.2187 1.881 15.2062 0.646851 12.0018 0.646851C9.6169 0.646851 7.31324 1.3406 5.33446 2.64778C3.35567 3.95495 1.82729 5.79522 0.911736 7.97141C0.00356307 10.1476 -0.23272 12.521 0.232442 14.8286C0.697604 17.1362 1.83468 19.2394 3.51812 20.9044C5.20156 22.5694 7.32802 23.694 9.66121 24.1541C10.4365 24.3074 11.2265 24.3805 12.0092 24.3805C13.5745 24.3805 15.125 24.0737 16.5943 23.4749C18.7946 22.5767 20.6553 21.0651 21.9769 19.1006C23.2986 17.1435 24 14.8651 24 12.5064C24 9.34431 22.7522 6.36483 20.4854 4.12291ZM22.1541 12.5137C22.1541 15.1937 21.0983 17.7131 19.1785 19.6118C17.2588 21.5105 14.7115 22.5548 12.0018 22.5548C9.98608 22.5548 8.03682 21.9706 6.36076 20.8606C4.6847 19.7506 3.39258 18.1951 2.6247 16.3548C1.85681 14.5146 1.65007 12.5064 2.04878 10.5565C2.44011 8.59944 3.39997 6.82489 4.82499 5.41548C6.25001 4.00607 8.04422 3.05673 10.023 2.66968C10.6801 2.53824 11.3447 2.47251 12.0092 2.47251C13.3308 2.47251 14.6451 2.72811 15.8855 3.23929C17.7462 3.99877 19.3188 5.27673 20.4411 6.93443C21.5634 8.59213 22.1541 10.52 22.1541 12.5137Z" fill="#1D1D1D"/>
<path d="M12.216 5.70022C11.4112 5.68561 10.5621 5.85358 9.81634 6.1895C9.06322 6.52542 8.38398 7.02201 7.86713 7.62813C7.77853 7.70846 7.70467 7.8107 7.65298 7.92024C7.6013 8.02978 7.57178 8.15393 7.57178 8.27807C7.57178 8.39492 7.59395 8.50446 7.63825 8.614C7.68255 8.72354 7.74896 8.81848 7.83018 8.8988C7.9114 8.97913 8.01478 9.03756 8.11815 9.08137C8.2289 9.12519 8.34705 9.13979 8.4578 9.13979C8.70146 9.13249 8.93036 9.04486 9.11494 8.86229C9.4915 8.43143 9.96403 8.0736 10.4883 7.83261C11.0125 7.59162 11.5958 7.46747 12.1717 7.46747C13.7296 7.46747 14.815 8.41683 14.815 9.81164C14.815 11.7688 12.8214 12.2069 11.6401 12.2946C11.5293 12.3019 11.426 12.3238 11.3226 12.3749C11.2266 12.426 11.138 12.4917 11.0715 12.5721C11.0051 12.6524 10.9534 12.7473 10.9239 12.8569C10.8943 12.9591 10.887 13.0687 10.9017 13.149V15.1791C10.9239 15.4055 11.0346 15.6173 11.2044 15.7634C11.3743 15.9167 11.5958 15.997 11.8173 15.997C11.8173 15.997 11.8173 15.997 11.8247 15.997H11.928C12.1569 15.9751 12.3637 15.8656 12.5187 15.6976C12.6738 15.5297 12.755 15.3106 12.755 15.0842V13.7405C15.3097 13.3389 16.7642 11.8783 16.7642 9.6875C16.7495 7.33602 14.874 5.70022 12.216 5.70022Z" fill="#1D1D1D"/>
<path d="M11.839 19.5972C12.4506 19.5972 12.9465 19.1068 12.9465 18.5018C12.9465 17.8968 12.4506 17.4064 11.839 17.4064C11.2273 17.4064 10.7314 17.8968 10.7314 18.5018C10.7314 19.1068 11.2273 19.5972 11.839 19.5972Z" fill="#1D1D1D"/>
</svg>
